<svg id="Layer_1" viewBox="0 0 24 24" xmlns="http://www.w3.org/2000/svg" data-name="Layer 1"><path d="m6.329 17.765c-.486.497-1.329.153-1.329-.542v-1.223h-3.5c-.828 0-1.5-.671-1.5-1.5s.672-1.5 1.5-1.5h3.5v-1.223c0-.695.844-1.039 1.33-.542l2.481 2.538c.402.401.402 1.053 0 1.453l-2.481 2.538zm10.171-6.765c-.828 0-1.5.672-1.5 1.5s.672 1.5 1.5 1.5 1.5-.672 1.5-1.5-.672-1.5-1.5-1.5zm7.5-5.289v14.789c0 1.93-1.57 3.5-3.5 3.5h-11c-1.93 0-3.5-1.57-3.5-3.5 0-.829.672-1.5 1.5-1.5s1.5.671 1.5 1.5c0 .276.225.5.5.5h1.5v-16h-.5c-.827 0-1.5.673-1.5 1.5v2c0 .829-.672 1.5-1.5 1.5s-1.5-.671-1.5-1.5v-2c0-2.481 2.019-4.5 4.5-4.5h1.286c.242-.359.518-.697.862-.979 1.047-.858 2.412-1.197 3.734-.933l3.599.72c2.329.466 4.02 2.528 4.02 4.903zm-3 0c0-.95-.676-1.775-1.607-1.961l-3.599-.72c-.441-.087-.896.025-1.245.311s-.549.709-.549 1.16v16.499h6.5c.275 0 .5-.224.5-.5z"/></svg>